<?xml version="1.0" encoding="UTF-8" standalone="no"?>
<!-- Generator: Adobe Illustrator 23.0.1, SVG Export Plug-In . SVG Version: 6.00 Build 0)  -->
<svg xmlns:dc="http://purl.org/dc/elements/1.1/" xmlns:cc="http://creativecommons.org/ns#" xmlns:rdf="http://www.w3.org/1999/02/22-rdf-syntax-ns#" xmlns:svg="http://www.w3.org/2000/svg" xmlns="http://www.w3.org/2000/svg" xmlns:sodipodi="http://sodipodi.sourceforge.net/DTD/sodipodi-0.dtd" xmlns:inkscape="http://www.inkscape.org/namespaces/inkscape" version="1.1" id="Livello_1" x="0px" y="0px" viewBox="0 0 238.4 250" enable-background="new 0 0 238.4 250" xml:space="preserve" sodipodi:docname="EuroBosnia-Herzegovina.svg" inkscape:version="0.92.3 (2405546, 2018-03-11)"><metadata id="metadata31"><rdf:RDF><cc:Work rdf:about=""><dc:format>image/svg+xml</dc:format><dc:type rdf:resource="http://purl.org/dc/dcmitype/StillImage"/></cc:Work></rdf:RDF></metadata><defs id="defs29">
	
	
</defs><sodipodi:namedview pagecolor="#ffffff" bordercolor="#666666" borderopacity="1" objecttolerance="10" gridtolerance="10" guidetolerance="10" inkscape:pageopacity="0" inkscape:pageshadow="2" inkscape:window-width="1920" inkscape:window-height="1001" id="namedview27" showgrid="false" inkscape:zoom="1" inkscape:cx="305.12744" inkscape:cy="138.46768" inkscape:window-x="-9" inkscape:window-y="-9" inkscape:window-maximized="1" inkscape:current-layer="Livello_1"/>
<g id="g860"><g transform="matrix(1.006088,0,0,1.0047221,-0.5532424,-0.72980432)" id="g20">
		<path d="m 30.2,74.6 0.4,1 -0.6,-0.4 c -0.6,1.7 -1.2,3.4 -1.7,5.3 L 41,79.2 45.2,65.6 49.4,78.3 63.1,76.9 52,86.2 56.2,98.9 45.1,92 34,101.1 38.2,87.5 28,81.1 c -2.3,8.5 -3.7,18.4 -3.9,30.2 -0.7,65.3 72.9,95.2 83.2,115.9 4,-11.8 17,-26 32.5,-42.3 l 1.5,-4.8 -11.1,-6.9 13.8,-1.5 4.2,-13.6 4.2,12.7 0.7,-0.1 c 3.9,-4.2 7.9,-8.6 11.8,-13.1 L 45.5,50.4 C 39.6,55.8 34.1,63.7 30.2,74.6 Z m 92.3,60.5 4.2,12.7 13.7,-1.4 -11.1,9.3 4.2,12.7 -11.1,-6.9 -11.1,9.2 4.2,-13.6 -11.1,-6.9 13.7,-1.4 z m -25.8,-23.2 4.2,12.7 13.8,-1.5 -11.1,9.3 4.2,12.7 -11.1,-6.9 -11.1,9.2 4.3,-13.6 -11.1,-6.9 13.7,-1.4 z m -25.8,-23.2 4.2,12.7 13.7,-1.5 -11.1,9.3 4.2,12.7 -11,-6.9 -11.1,9.2 4.3,-13.6 -11.1,-6.9 13.8,-1.5 z" id="path2" inkscape:connector-curvature="0" style="fill:#002299"/>
		<path d="M 30.2,74.6 C 30.1,74.8 30,75.1 30,75.3 l 0.6,0.4 z" id="path4" inkscape:connector-curvature="0" style="fill:#ffffff"/>
		<path d="M 34,101.1 45.1,91.9 56.2,98.8 52,86.1 63.1,76.8 49.4,78.2 45.2,65.5 41,79.1 28.3,80.4 c -0.1,0.2 -0.1,0.4 -0.2,0.7 l 10.2,6.4 z" id="path6" inkscape:connector-curvature="0" style="fill:#ffffff"/>
		<polygon points="70.9,88.7 66.7,102.3 52.9,103.8 64.1,110.7 59.8,124.3 70.9,115 82.1,121.9 77.8,109.2 88.9,100 75.2,101.4 " id="polygon8" style="fill:#ffffff"/>
		<polygon points="96.7,111.9 92.5,125.5 78.7,126.9 89.8,133.9 85.6,147.4 96.7,138.2 107.8,145.1 103.6,132.4 114.7,123.1 100.9,124.6 " id="polygon10" style="fill:#ffffff"/>
		<polygon points="122.5,135.1 118.2,148.6 104.5,150.1 115.6,157 111.3,170.6 122.5,161.3 133.6,168.2 129.4,155.6 140.4,146.3 126.7,147.7 " id="polygon12" style="fill:#ffffff"/>
		<path d="m 148.2,158.2 -4.2,13.6 -13.8,1.5 11.1,6.9 -1.5,4.8 c 4.3,-4.5 8.8,-9.3 13.3,-14.1 l -0.7,0.1 z" id="path14" inkscape:connector-curvature="0" style="fill:#ffffff"/>
		<path d="m 165,157.8 c 10,-11.4 19.6,-23.6 27.2,-36.5 V 24.1 c -5.4,-4.5 -12.4,-7.2 -21,-7.2 -31,0 -56.3,36.3 -58.9,48.1 -2.6,11.9 -10.7,6.1 -12.2,-1.2 -1.4,-7.3 -10.3,-23.6 -31.8,-23.6 -6.4,0 -15,2.9 -22.9,10.2 z" id="path16" inkscape:connector-curvature="0" style="fill:#ffcc00"/>
		<path d="m 208.6,71.1 c 0.6,-17.3 -4,-36.8 -16.4,-47 v 97.3 c 9.4,-15.8 15.8,-32.6 16.4,-50.3 z" id="path18" inkscape:connector-curvature="0" style="fill:#002299"/>
	</g><path d="M 181.4,0 C 155.9,0 125.7,18.8 107.4,50.2 102.5,38.9 84.9,26.5 64,26.5 47.2,26.5 0,47.5 0,115.4 0,203 88.6,221 106.5,248.2 c 1.2,1.9 5.2,3.3 6.7,-1.2 C 127.5,204.8 238.3,157.2 238.3,71.3 238.4,23.2 206.9,0 181.4,0 Z M 24.2,111.4 C 24.8,57.1 53,40.2 68.4,40.2 c 21.5,0 30.3,16.4 31.8,23.6 1.4,7.2 9.6,13 12.2,1.2 2.6,-11.9 27.9,-48.1 58.9,-48.1 28.4,0 38.3,29.3 37.4,54.2 C 206.4,139 119,193.1 107.4,227.3 97.1,206.6 23.5,176.6 24.2,111.4 Z" id="path22" inkscape:connector-curvature="0" style="fill:#000000;fill-opacity:1"/></g>
</svg>