<?xml version="1.0" encoding="UTF-8" standalone="no"?>
<svg xmlns:dc="http://purl.org/dc/elements/1.1/" xmlns:cc="http://creativecommons.org/ns#" xmlns:rdf="http://www.w3.org/1999/02/22-rdf-syntax-ns#" xmlns:svg="http://www.w3.org/2000/svg" xmlns="http://www.w3.org/2000/svg" xmlns:sodipodi="http://sodipodi.sourceforge.net/DTD/sodipodi-0.dtd" xmlns:inkscape="http://www.inkscape.org/namespaces/inkscape" width="238.3" height="250.00101" version="1.1" id="svg10" sodipodi:docname="EuroKosovo.svg" inkscape:version="0.92.3 (2405546, 2018-03-11)">
  <metadata id="metadata16">
    <rdf:RDF>
      <cc:Work rdf:about="">
        <dc:format>image/svg+xml</dc:format>
        <dc:type rdf:resource="http://purl.org/dc/dcmitype/StillImage"/>
        <dc:title/>
      </cc:Work>
    </rdf:RDF>
  </metadata>
  <defs id="defs14"/>
  <sodipodi:namedview pagecolor="#ffffff" bordercolor="#666666" borderopacity="1" objecttolerance="10" gridtolerance="10" guidetolerance="10" inkscape:pageopacity="0" inkscape:pageshadow="2" inkscape:window-width="1920" inkscape:window-height="1001" id="namedview12" showgrid="false" inkscape:snap-nodes="false" inkscape:zoom="1.888" inkscape:cx="219.38833" inkscape:cy="170.14721" inkscape:window-x="-9" inkscape:window-y="-9" inkscape:window-maximized="1" inkscape:current-layer="svg10" fit-margin-top="0" fit-margin-left="0" fit-margin-right="0" fit-margin-bottom="0"/>
  <g id="g1465" transform="matrix(1.0078198,0,0,1.0080706,-1.0078198,-1.0080706)">
    <path style="fill:#244aa5;fill-opacity:1" id="path2" d="M 5.515,135.433 C 40.01,169.956 74.505,204.478 109,239 148,196 187,153 226,110 221,79.667 216,49.333 211,19 190.667,17.333 170.333,15.667 150,14 135.333,29 120.667,44 106,59 96.667,50.667 87.333,42.333 78,34 60.828,40.189 43.657,46.378 26.485,52.567 c -6.99,27.622 -13.98,55.244 -20.97,82.866 z" inkscape:connector-curvature="0"/>
    <path id="path4" d="m 25.005,111.471 c 0.6,-53.792 28.594,-70.628 43.839,-70.628 21.29,0 30.083,16.253 31.52,23.449 1.436,7.19 9.494,12.941 12.083,1.147 2.591,-11.794 27.637,-47.758 58.42,-47.758 28.192,0 37.956,29.073 37.111,53.801 C 205.671,138.8 118.95,192.527 107.535,226.452 97.371,205.905 24.288,176.204 25.005,111.471 Z M 180.938,1 C 155.621,1 125.68,19.698 107.557,50.771 102.667,39.549 85.244,27.32 64.533,27.32 47.844,27.32 1,48.178 1,115.498 c 0,86.88 87.901,104.725 105.671,131.729 1.221,1.857 5.154,3.26 6.655,-1.177 C 127.505,204.205 237.451,156.925 237.451,71.771 237.45,24.015 206.254,1 180.938,1 Z" inkscape:connector-curvature="0"/>
    <path style="fill:#ffffff;stroke-width:0.78243583" inkscape:connector-curvature="0" id="path8" d="m 100.22352,84.511209 -1.765179,5.58581 -5.713347,0.499976 4.621848,2.952914 -1.765175,5.585808 4.621853,-3.761169 4.62184,2.952913 -1.76518,-5.276747 4.61716,-3.761169 -5.70865,0.499195 -1.76517,-5.276748 z m 18.26909,-1.598515 -1.76518,5.585808 -5.70865,0.499195 4.61715,2.952912 -1.76517,5.58581 4.62185,-3.761169 4.62185,2.952913 -1.76518,-5.276747 4.62184,-3.76117 -5.71334,0.499977 -1.76517,-5.276748 z m -36.260423,6.343206 -1.765175,5.58581 -5.713347,0.499976 4.621848,2.952913 -1.765175,5.585811 4.621849,-3.76117 4.621848,2.95291 -1.765175,-5.276745 4.617154,-3.761169 -5.708652,0.499194 -1.765175,-5.276747 z m 54.251743,-4.746255 -1.76517,5.585809 -5.70865,0.499194 4.61715,2.952913 -1.76518,5.585809 4.62185,-3.761168 4.62185,2.952912 -1.76517,-5.276748 4.62185,-3.761168 -5.71335,0.499977 -1.76518,-5.276748 z m -71.419168,12.498629 -1.765175,5.585806 -5.713346,0.49998 4.621849,2.95291 -1.765176,5.58581 4.621848,-3.76116 4.621848,2.9529 -1.765175,-5.27674 4.617154,-3.76117 -5.708651,0.49919 -1.765176,-5.276743 z m 88.587378,-7.750026 -1.76517,5.585809 -5.70865,0.499194 4.61715,2.952913 -1.76518,5.585806 4.62185,-3.76116 4.62185,2.95291 -1.76517,-5.276751 4.62184,-3.761168 -5.71334,0.499977 -1.76518,-5.276748 z"/>
    <path id="path26-3" d="m 110.88061,109.06867 c 0.82276,0.79933 1.39977,1.6205 1.49637,2.67476 -0.59579,0.3657 -1.44649,0.57069 -1.89297,1.17384 3.05872,-0.71865 4.00523,2.81778 7.35042,1.13633 0.17158,0.48607 0.70903,0.87475 1.30884,0.63048 l 0.28097,-1.02362 c 1.3262,-0.49627 1.15889,1.76709 2.61147,1.19582 0.80051,0.55229 0.3993,1.64966 0.9653,2.3505 0.0793,0.86585 0.51933,1.57503 0.95854,2.28403 0.33237,-0.46541 0.52091,-1.10833 1.40698,-1.00203 0.67959,0.62357 1.23403,1.19842 1.42767,1.92994 -0.12103,1.44964 -0.37926,2.72118 1.17511,3.328 l 0.0398,0.4345 c 1.03502,0.34334 3.18493,-0.72999 3.34393,1.00511 -0.0696,0.63202 0.62286,0.007 0.90882,0.35487 0.59449,-0.30536 1.47508,-0.25878 2.2181,-0.32687 0.73645,1.24402 -0.53875,2.2974 -0.80247,3.5092 0.6736,0.56073 0.53063,1.70105 0.47241,2.45223 l -0.3548,0.21999 c 1.00569,0.0951 2.21833,-0.3237 3.13886,0.15396 l 1.66886,0.4693 c 0.70351,-0.4992 1.56031,-0.64453 2.5614,-0.66945 0.79436,0.48947 -0.11576,1.50938 0.54755,1.88357 0.86928,-0.0796 1.62387,-0.0214 1.81142,0.71077 l 0.14848,0.23389 c 0.51507,-1.17145 2.32144,-0.58771 2.99113,-1.45832 1.24067,-0.11366 1.61071,1.22411 2.29589,1.91083 0.42849,1.90085 -1.84717,2.98614 -0.92845,4.83545 -0.41251,0.97432 -1.33302,1.8084 -1.9964,2.7455 0.25692,0.1035 0.15866,0.42043 0.17569,0.60613 -0.70285,0.5062 0.0401,1.7494 -0.94433,1.9605 -0.0453,0.82 -1.56018,0.64453 -0.98946,1.46853 1.11419,1.2094 -0.29833,2.14856 -0.19013,3.32948 -0.5612,0.74048 -1.92159,-0.45298 -1.80181,0.85416 -0.72626,0.2538 -1.54892,-0.54712 -1.97185,0.24117 -0.17234,0.89234 0.59866,1.12938 0.5589,2.00956 1.2227,-0.23931 1.70809,0.9675 2.27377,1.66516 l 1.35435,1.12696 c -1.15007,1.10236 -2.86473,0.1352 -4.30015,0.82876 -0.38865,-0.15164 -0.062,-0.67674 -0.45066,-0.82839 -0.41179,-0.40407 -1.15481,-0.33599 -1.7828,-0.39911 0.17056,0.54685 -0.92711,0.83444 -0.36752,1.46562 0.0169,0.18569 0.31351,0.72076 -0.17753,0.76576 -0.96663,0.4031 -0.94807,-0.78282 -1.77803,-0.27205 -1.07513,0.53349 -0.0526,2.12604 -1.68196,2.08786 0.38224,1.47057 -2.24751,2.70852 -0.27066,3.83887 0.2679,0.22316 0.18749,0.73209 0.22153,1.10372 -1.02365,1.09738 -3.03526,0.90718 -4.30975,0.649 -1.01831,-0.16077 -0.50842,-1.45878 -0.94184,-2.10151 -0.42878,-0.58956 -1.58292,-0.91875 -1.66257,-1.78799 -0.7717,-0.23745 -1.4124,-0.37193 -1.96663,-0.94405 -1.57847,1.83089 -3.54016,3.63646 -6.01031,3.92302 -1.06359,0.65946 -1.4823,2.95293 -3.29936,2.18222 -0.57794,1.17743 -2.72716,0.2499 -2.70277,1.8673 -0.77762,0.38559 -0.30931,1.40646 -0.75855,1.94279 -0.0722,1.25769 0.21035,2.2956 1.33004,2.94272 0.51964,0.88892 -0.84386,1.01385 -0.20686,1.83226 0.15422,0.29377 0.0681,0.74302 -0.10604,0.88602 -0.35462,0.21974 -0.46017,0.41714 -0.30353,0.7773 -0.3085,0.0283 -0.41728,0.2255 -0.64063,0.49345 -0.25538,0.64584 -1.21549,1.04812 -1.85924,1.54208 -0.66315,0.24803 -1.20579,-0.19743 -1.67718,-0.59558 -0.0636,0.69487 -0.58665,1.11755 -1.26684,1.17988 -0.99206,0.091 -0.88578,-0.79537 -1.66303,-1.09868 0.20634,-1.14314 -0.83049,-1.54332 -0.60998,-2.5671 0.74933,-0.6909 2.06976,-1.25346 1.57897,-2.51978 -0.96196,-0.96926 -0.79568,-2.55008 -1.7752,-3.71138 -0.60232,-0.43999 -1.59938,-1.09789 -1.39911,-2.30732 0.72107,-1.00259 -0.18726,-2.0436 -0.71235,-2.99246 -0.25985,-0.79228 -0.82237,-1.49001 -0.90752,-2.41919 -1.437,-0.6778 -1.6935,-2.78213 -3.631302,-2.79183 -1.36346,0.1249 -1.767801,-1.58447 -3.120315,-1.3401 -0.148471,-0.23388 -0.473992,-0.39131 -0.74534,-0.61414 -0.92665,0.76735 -2.246336,0.0186 -3.456038,0.4371 -0.93082,-1.28642 0.385237,-3.28052 -1.858523,-3.89123 l -0.07903,-0.86247 c 0.259716,0.0965 0.36,-0.16049 0.411383,-0.29201 0.03768,-0.9402 -1.645466,-0.90642 -1.058626,-2.02421 -0.400148,-0.27764 -0.846252,-0.36403 -0.653951,-1.00388 -1.107841,-1.83223 -3.877708,-1.39092 -4.674454,-3.25825 0.458132,-0.47671 0.417986,-0.91483 0.569843,-1.30328 -0.502792,-0.70342 -0.698968,-1.49515 -0.649925,-2.30912 0.423119,-0.16604 0.617517,-0.74563 0.826164,-1.20657 -0.591369,-0.32032 -1.322814,-0.81531 -1.925973,-0.57278 -1.131679,-0.0836 -2.017099,-0.87236 -3.054513,-1.27909 -0.271303,-0.22285 -0.185213,-0.67207 -0.213193,-0.97743 1.323056,-0.56305 -0.40185,-2.34189 1.292962,-2.24607 0.383667,-0.59718 1.29535,-0.86819 1.935909,-1.36506 0.672039,-0.18519 1.252155,0.0124 1.94937,0.13592 0.625125,0.68879 1.588915,0.28936 2.202838,0.85853 0.545787,-0.17705 1.201014,-0.54843 1.909434,-0.30201 -0.09638,-1.05177 0.341258,-1.71752 1.019324,-2.52916 0.08331,-0.4426 0.73489,-0.81659 1.269712,-1.1133 1.077675,0.14895 2.315182,0.0355 2.993499,-0.7761 0.522989,0.26638 0.900651,-0.39366 1.457976,-0.44472 0.668388,-0.18828 1.242927,-0.0539 1.769161,0.21263 -0.05403,-1.24632 2.212278,-0.39019 2.510818,-1.91631 0.403533,-1.03736 -1.488395,-1.23851 -1.445446,-2.11901 -0.399445,-0.96377 0.298551,-1.52611 0.607608,-2.24028 0.417455,-0.22575 0.889162,-0.51964 1.457724,-0.44811 1.381244,-0.62517 -5.05e-4,-3.43564 2.388794,-2.59077 0.0283,0.30873 -0.0637,0.69169 0.12778,0.73779 0.80612,-0.0738 0.84465,-1.01507 1.37602,-1.37716 0.16605,-0.88832 -0.4877,-1.89223 0.19299,-2.64069 0.36586,-0.097 0.6663,-0.24833 0.88336,-0.58273 -0.0623,-0.68015 -0.46799,-1.01749 -1.06515,-1.40115 -0.15733,0.32666 -0.6744,0.12537 -0.97414,0.27674 -0.0681,-0.74324 -0.54561,-1.19787 -0.73425,-1.86988 -0.38865,-0.15164 -0.60262,-0.44314 -0.51646,-0.88942 0.50627,-0.6084 -0.17601,-1.92079 1.15288,-1.73075 0.45489,-0.47734 1.35219,-0.24845 1.77852,-1.03701 1.23246,-0.86222 2.96736,-1.02118 3.83449,-2.47554 0.44025,0.0231 0.89486,-0.45675 1.36345,-0.12491 0.19689,0.79463 1.34607,0.37481 1.41431,1.11964" inkscape:connector-curvature="0" style="fill:#d0a650;stroke-width:0.21237198"/>
  </g>
</svg>