<?xml version="1.0" encoding="UTF-8" standalone="no"?>
<!-- Created with Inkscape (http://www.inkscape.org/) -->

<svg
   width="210mm"
   height="297mm"
   viewBox="0 0 210 297"
   version="1.1"
   id="svg8083"
   xml:space="preserve"
   inkscape:version="1.2.1 (9c6d41e410, 2022-07-14)"
   sodipodi:docname="logo.svg"
   inkscape:export-filename="www\img\contest03\03-logo.png"
   inkscape:export-xdpi="96"
   inkscape:export-ydpi="96"
   xmlns:inkscape="http://www.inkscape.org/namespaces/inkscape"
   xmlns:sodipodi="http://sodipodi.sourceforge.net/DTD/sodipodi-0.dtd"
   xmlns="http://www.w3.org/2000/svg"
   xmlns:svg="http://www.w3.org/2000/svg"><sodipodi:namedview
     id="namedview8085"
     pagecolor="#505050"
     bordercolor="#ffffff"
     borderopacity="1"
     inkscape:showpageshadow="0"
     inkscape:pageopacity="0"
     inkscape:pagecheckerboard="1"
     inkscape:deskcolor="#505050"
     inkscape:document-units="mm"
     showgrid="false"
     inkscape:zoom="2.0470873"
     inkscape:cx="669.48781"
     inkscape:cy="300.42685"
     inkscape:window-width="1920"
     inkscape:window-height="1137"
     inkscape:window-x="-8"
     inkscape:window-y="711"
     inkscape:window-maximized="1"
     inkscape:current-layer="layer1" /><defs
     id="defs8080"><clipPath
       id="clipPath20"
       clipPathUnits="userSpaceOnUse"><path
         style="clip-rule:evenodd"
         id="path18"
         d="m 1723.66,86.5195 67.3,80.6565 c 46.55,-38.488 95.36,-62.875 154.51,-62.875 46.6,0 74.72,18.496 74.72,48.82 v 1.496 c 0,28.844 -17.76,43.617 -104.29,65.821 -104.26,26.617 -171.54,55.476 -171.54,158.339 v 1.45 c 0,93.918 75.44,156.078 181.17,156.078 75.42,0 139.74,-23.672 192.24,-65.84 l -59.16,-85.828 c -45.85,31.851 -90.96,51.062 -134.57,51.062 -43.63,0 -66.55,-19.976 -66.55,-45.125 v -1.48 c 0,-34.004 22.17,-45.114 111.65,-68.051 105.02,-27.363 164.16,-65.09 164.16,-155.332 v -1.496 c 0,-102.8283 -78.38,-160.50016 -190.05,-160.50016 -78.37,0 -157.47,27.37896 -219.59,82.80466 z" /></clipPath><clipPath
       id="clipPath26"
       clipPathUnits="userSpaceOnUse"><path
         id="path24"
         d="M 0,0 H 9980 V 3160 H 0 Z" /></clipPath><clipPath
       id="clipPath36"
       clipPathUnits="userSpaceOnUse"><path
         style="clip-rule:evenodd"
         id="path34"
         d="m 2676.12,268.527 v 1.481 c 0,88.746 -65.08,162.746 -156.77,162.746 -91.69,0 -155.28,-72.52 -155.28,-161.266 v -1.48 c 0,-88.774 65.07,-162.762 156.75,-162.762 91.69,0.016 155.29,72.508 155.3,161.281 z m -431.09,0 v 1.481 c 0,147.211 116.08,267.793 275.79,267.793 159.74,0 274.34,-119.133 274.34,-266.313 v -1.48 c 0,-147.211 -116.11,-267.77362 -275.81,-267.77362 -159.71,0 -274.32,119.08162 -274.32,266.29262 z" /></clipPath><clipPath
       id="clipPath42"
       clipPathUnits="userSpaceOnUse"><path
         id="path40"
         d="M 0,0 H 9980 V 3160 H 0 Z" /></clipPath><clipPath
       id="clipPath52"
       clipPathUnits="userSpaceOnUse"><path
         style="clip-rule:evenodd"
         id="path50"
         d="m 2926.12,528.918 h 104.99 l 242.55,-318.84 v 318.84 h 112.37 V 11.1133 h -96.85 L 3038.52,340.27 V 11.1133 h -112.4 z" /></clipPath><clipPath
       id="clipPath58"
       clipPathUnits="userSpaceOnUse"><path
         id="path56"
         d="M 0,0 H 9980 V 3160 H 0 Z" /></clipPath><clipPath
       id="clipPath68"
       clipPathUnits="userSpaceOnUse"><path
         style="clip-rule:evenodd"
         id="path66"
         d="m 3531.06,268.527 v 1.481 c 0,147.211 114.61,267.793 271.39,267.793 93.13,0 149.34,-25.168 203.31,-70.996 l -71.72,-86.578 c -39.93,33.269 -75.43,52.527 -135.3,52.527 -82.81,0 -148.66,-73.238 -148.66,-161.266 v -1.48 c 0,-94.695 65.11,-164.242 156.79,-164.242 41.42,0 78.36,10.379 107.2,31.07 v 74.019 h -114.59 v 98.375 h 224.77 V 84.3242 C 3971.01,39.2109 3897.8,2.23438 3803.18,2.23438 c -161.22,0 -272.12,113.16062 -272.12,266.29262 z" /></clipPath><clipPath
       id="clipPath74"
       clipPathUnits="userSpaceOnUse"><path
         id="path72"
         d="M 0,0 H 9980 V 3160 H 0 Z" /></clipPath><clipPath
       id="clipPath84"
       clipPathUnits="userSpaceOnUse"><path
         style="clip-rule:evenodd"
         id="path82"
         d="m 4421.45,268.527 v 1.481 c 0,147.211 110.9,267.793 269.89,267.793 97.55,0 156.01,-32.555 204.1,-79.926 l -72.51,-83.57 c -39.94,36.261 -80.61,58.449 -132.34,58.449 -87.26,0 -150.11,-72.52 -150.11,-161.266 v -1.48 c 0,-88.774 61.38,-162.762 150.11,-162.762 59.13,0.016 95.34,23.684 136.02,60.664 L 4899.1,94.6719 C 4845.84,37.7305 4786.68,2.23438 4686.9,2.23438 c -152.32,0 -265.45,117.61762 -265.45,266.29262 z" /></clipPath><clipPath
       id="clipPath90"
       clipPathUnits="userSpaceOnUse"><path
         id="path88"
         d="M 0,0 H 9980 V 3160 H 0 Z" /></clipPath><clipPath
       id="clipPath100"
       clipPathUnits="userSpaceOnUse"><path
         style="clip-rule:evenodd"
         id="path98"
         d="m 5427.9,268.527 v 1.481 c 0,88.746 -65.11,162.746 -156.76,162.746 -91.73,0 -155.3,-72.52 -155.3,-161.266 v -1.48 c 0,-88.774 65.08,-162.762 156.78,-162.762 91.68,0.016 155.28,72.508 155.28,161.281 z m -431.09,0 v 1.481 c 0,147.211 116.06,267.793 275.81,267.793 159.72,0 274.3,-119.133 274.3,-266.313 l 0.01,-1.48 c 0,-147.211 -116.09,-267.77362 -275.79,-267.77362 -159.71,0 -274.33,119.08162 -274.33,266.29262 z" /></clipPath><clipPath
       id="clipPath106"
       clipPathUnits="userSpaceOnUse"><path
         id="path104"
         d="M 0,0 H 9980 V 3160 H 0 Z" /></clipPath><clipPath
       id="clipPath116"
       clipPathUnits="userSpaceOnUse"><path
         style="clip-rule:evenodd"
         id="path114"
         d="m 5677.91,528.918 h 104.99 l 242.55,-318.84 v 318.84 h 112.4 V 11.1133 h -96.9 L 5790.3,340.27 V 11.1133 H 5677.91 V 528.918" /></clipPath><clipPath
       id="clipPath122"
       clipPathUnits="userSpaceOnUse"><path
         id="path120"
         d="M 0,0 H 9980 V 3160 H 0 Z" /></clipPath><clipPath
       id="clipPath132"
       clipPathUnits="userSpaceOnUse"><path
         style="clip-rule:evenodd"
         id="path130"
         d="m 6415.93,423.875 h -157.5 v 105.043 h 428.86 V 423.875 H 6529.8 V 11.1133 H 6415.93 V 423.875" /></clipPath><clipPath
       id="clipPath138"
       clipPathUnits="userSpaceOnUse"><path
         id="path136"
         d="M 0,0 H 9980 V 3160 H 0 Z" /></clipPath><clipPath
       id="clipPath148"
       clipPathUnits="userSpaceOnUse"><path
         style="clip-rule:evenodd"
         id="path146"
         d="m 6818.99,528.918 h 390.4 V 427.582 H 6932.15 V 322.555 h 243.99 V 221.188 H 6932.15 V 112.434 h 280.97 V 11.1133 H 6818.99 V 528.918" /></clipPath><clipPath
       id="clipPath154"
       clipPathUnits="userSpaceOnUse"><path
         id="path152"
         d="M 0,0 H 9980 V 3160 H 0 Z" /></clipPath><clipPath
       id="clipPath164"
       clipPathUnits="userSpaceOnUse"><path
         style="clip-rule:evenodd"
         id="path162"
         d="m 7322.63,86.5195 67.28,80.6565 c 46.57,-38.488 95.39,-62.875 154.56,-62.875 46.54,0 74.67,18.496 74.67,48.82 v 1.496 c 0,28.844 -17.75,43.617 -104.26,65.821 -104.27,26.617 -171.55,55.476 -171.55,158.339 l 0.02,1.45 c 0,93.918 75.39,156.078 181.15,156.078 75.39,0 139.75,-23.672 192.25,-65.84 l -59.16,-85.828 c -45.84,31.851 -90.97,51.062 -134.58,51.062 -43.6,0 -66.55,-19.976 -66.55,-45.125 v -1.48 c 0,-34.004 22.17,-45.114 111.64,-68.051 105.02,-27.363 164.16,-65.09 164.16,-155.332 l 0.01,-1.496 c 0,-102.8283 -78.38,-160.50016 -190.06,-160.50016 -78.33,0 -157.46,27.37896 -219.58,82.80466" /></clipPath><clipPath
       id="clipPath170"
       clipPathUnits="userSpaceOnUse"><path
         id="path168"
         d="M 0,0 H 9980 V 3160 H 0 Z" /></clipPath><clipPath
       id="clipPath180"
       clipPathUnits="userSpaceOnUse"><path
         style="clip-rule:evenodd"
         id="path178"
         d="m 7984.5,423.875 h -157.49 v 105.043 h 428.85 V 423.875 H 8098.33 V 11.1133 H 7984.5 V 423.875" /></clipPath><clipPath
       id="clipPath186"
       clipPathUnits="userSpaceOnUse"><path
         id="path184"
         d="M 0,0 H 9980 V 3160 H 0 Z" /></clipPath><clipPath
       id="clipPath196"
       clipPathUnits="userSpaceOnUse"><path
         style="clip-rule:evenodd"
         id="path194"
         d="m 8475.75,1232.82 c -133.43,6.77 -209.69,164.75 -200.37,326.2 16.37,284.54 254.06,571.73 254.06,571.73 55.5,-50.66 222.42,-325.24 213.35,-535.36 -8.85,-205.23 -133.71,-369.31 -267.04,-362.57 z m 158.83,992.46 c 57.37,66.85 96.71,105.82 87.85,152.17 -8.83,46.35 -165.76,78.5 -235.59,14.02 -206.56,163.98 -164.27,-28.11 -134.38,-70.95 -243.99,-171.66 -409.1,-623.54 -276.28,-976.14 129.85,-344.673 521.52,-387.2 726.87,-144.97 181.83,214.5 149.38,608.8 -168.47,1025.87 z" /></clipPath><clipPath
       id="clipPath202"
       clipPathUnits="userSpaceOnUse"><path
         id="path200"
         d="M 0,0 H 9980 V 3160 H 0 Z" /></clipPath><clipPath
       id="clipPath212"
       clipPathUnits="userSpaceOnUse"><path
         style="clip-rule:evenodd"
         id="path210"
         d="M 986.074,2910.52 C 525.73,2943.88 16.9766,2562.46 36.4336,2068.47 c 1.8672,-47.43 41.9609,-90.88 99.5154,-90.88 71.199,0 279.735,7.9 279.735,7.9 0,0 -411.44572,-324.51 -411.44572,-704.45 0,-200.49 150.33972,-440.638 464.18772,-440.638 439.859,0.016 767.724,360.278 767.104,665.478 -0.03,23.24 -26.68,56.01 -69.66,3.9 -68.16,-82.68 -433.737,-458.28 -795.046,-458.28 -121.308,0.02 -226.789,68.63 -226.789,213.71 0,189.98 300.668,559.37 817.57,704.5 126.605,36.9 137.135,213.7 -23.738,221.6 -158.133,7.78 -704.176,-52.75 -743.722,-52.75 -39.567,0 -43.133,8.54 -29.02,44.85 18.473,47.5 218.895,398.41 820.219,464.37 203.086,15.85 182.706,249.52 0.73,262.74 z" /></clipPath><clipPath
       id="clipPath218"
       clipPathUnits="userSpaceOnUse"><path
         id="path216"
         d="M 0,0 H 9980 V 3160 H 0 Z" /></clipPath><clipPath
       id="clipPath228"
       clipPathUnits="userSpaceOnUse"><path
         style="clip-rule:evenodd"
         id="path226"
         d="m 1636.91,2333.55 c 0,119.32 -177.11,192.6 -243.86,23.64 -128.5,-325.32 -167.53,-1311.11 262.54,-1311.11 188.8,0.01 429.75,413.9 429.75,817.9 0,333.17 -136.35,550.93 -165.2,590.24 -28.85,39.37 -68.19,18.37 -62.94,-55.11 5.25,-73.41 26.21,-752.86 -186.2,-999.48 -83.9,-91.79 -145.73,3.83 -154.69,94.42 -26.23,264.99 120.6,666.36 120.6,839.5 z" /></clipPath><clipPath
       id="clipPath234"
       clipPathUnits="userSpaceOnUse"><path
         id="path232"
         d="M 0,0 H 9980 V 3160 H 0 Z" /></clipPath><clipPath
       id="clipPath244"
       clipPathUnits="userSpaceOnUse"><path
         style="clip-rule:evenodd"
         id="path242"
         d="m 3602.35,1274.7 c -120.76,0 -187.87,156.04 -187.87,325.51 0,298.66 214.68,570.37 214.68,570.37 59.03,-75.31 201.26,-287.84 201.26,-503.07 0,-215.26 -107.38,-392.81 -228.07,-392.81 z m 96.59,990.05 c 0,0 68.22,92.73 27.17,145.06 -46.16,58.97 -194.1,77.35 -332.7,-77.99 -182.48,-204.46 -310.32,-635.94 -172.12,-997.93 132.12,-346.12 502.07,-375.355 673.51,-113.03 152.94,234.11 112.71,624.21 -195.86,1043.89 z" /></clipPath><clipPath
       id="clipPath250"
       clipPathUnits="userSpaceOnUse"><path
         id="path248"
         d="M 0,0 H 9980 V 3160 H 0 Z" /></clipPath><clipPath
       id="clipPath260"
       clipPathUnits="userSpaceOnUse"><path
         style="clip-rule:evenodd"
         id="path258"
         d="m 2485.41,1911.64 c 10.55,134.55 21.1,274.4 21.1,274.4 0.02,0.02 300.69,76.55 403.51,65.95 89.54,-9.17 108.14,-47.47 62.55,-118.29 -107.37,-166.75 -354.24,-224.47 -487.16,-222.06 z m 645.41,-892.35 c -128.62,178.58 -290.16,536.07 -537.28,752.5 250.56,15.85 564.39,211.07 564.39,419.52 0,154.36 -160.52,265.61 -368.85,265.61 -208.35,0 -438.16,-70.37 -525.2,-123.12 -113.43,-65.96 -29.02,-221.62 76.5,-179.44 0,0 -39.57,-184.65 -50.11,-282.3 -85.68,10.6 -102.89,-5.26 -97.61,-23.74 5.3,-18.45 42.2,-34.32 84.41,-87.11 -13.19,-116.05 -36.55,-632.29 -31.28,-677.16 5.32,-45.18 32.53,-52.98 71.2,-5.26 34.3,42.18 107.76,144.2 142.05,529.39 39.56,-34.25 147.69,-179.17 279.57,-348.24 193.41,-248.02 257.18,-265.905 336.64,-293.862 42.87,-15.148 87.07,9.488 55.57,53.212 z" /></clipPath><clipPath
       id="clipPath266"
       clipPathUnits="userSpaceOnUse"><path
         id="path264"
         d="M 0,0 H 9980 V 3160 H 0 Z" /></clipPath><clipPath
       id="clipPath276"
       clipPathUnits="userSpaceOnUse"><path
         style="clip-rule:evenodd"
         id="path274"
         d="m 4250.28,2141.2 c 5.51,493.33 262.13,647.74 401.9,647.74 195.19,0 275.78,-149.06 288.96,-215.06 13.18,-65.94 87.04,-118.69 110.78,-10.53 23.75,108.16 253.38,438 535.56,438 258.45,0.02 347.96,-266.64 340.2,-493.43 C 5906.56,1890.54 5111.51,1397.8 5006.87,1086.64 4913.69,1275.1 4243.72,1547.5 4250.28,2141.2 Z M 5679.8,3154.36 c -232.09,0 -506.59,-171.49 -672.71,-456.47 -44.83,102.93 -204.57,215.07 -394.43,215.07 -152.99,0 -582.44,-191.29 -582.44,-808.71 0,-796.82 805.82,-960.48 968.74,-1208.125 11.18,-17.031 47.25,-29.887 60.99,10.801 129.99,383.774 1137.92,817.394 1137.92,1598.374 0,437.99 -285.98,649.06 -518.07,649.06 z" /></clipPath><clipPath
       id="clipPath282"
       clipPathUnits="userSpaceOnUse"><path
         id="path280"
         d="M 0,0 H 9980 V 3160 H 0 Z" /></clipPath><clipPath
       id="clipPath292"
       clipPathUnits="userSpaceOnUse"><path
         style="clip-rule:evenodd"
         id="path290"
         d="m 6335.41,2422.68 c 6.97,-268.16 -228.7,-694.52 -243.77,-1005.74 -11.06,-226.87 29.59,-318.66 48.92,-348.55 20.2,-31.28 64.46,-33.98 76.28,22.91 35.23,169.99 277.93,618.13 309.03,978.49 19.07,220.89 -49.42,356.06 -128.25,381.61 -35.19,11.39 -63.19,7.11 -62.21,-28.72" /></clipPath><clipPath
       id="clipPath298"
       clipPathUnits="userSpaceOnUse"><path
         id="path296"
         d="M 0,0 H 9980 V 3160 H 0 Z" /></clipPath><clipPath
       id="clipPath308"
       clipPathUnits="userSpaceOnUse"><path
         style="clip-rule:evenodd"
         id="path306"
         d="m 7214.39,2456.92 c -329.75,0 -567.58,-116.97 -567.58,-382.56 0.01,-163.61 121.31,-276.16 314.72,-307.84 112.54,-21.1 222.07,-29.37 261.97,-43.97 72.16,-26.35 -100.55,-109.5 -369.34,-291.87 -183.63,-124.6 -317.76,-256.24 -389.43,-396.02 -24.82,-48.387 8.77,-94.59 60.68,-58.844 100.79,69.434 321.66,185.154 535.96,303.104 203.94,112.26 396.04,235.61 396.04,389.09 0,138.99 -104.26,191.38 -184.65,200.55 -138.91,15.78 -439.58,3.5 -439.58,177.63 0.02,65.09 86.15,150.42 363.08,150.42 213.65,0 192.1,260.31 18.13,260.31" /></clipPath><clipPath
       id="clipPath314"
       clipPathUnits="userSpaceOnUse"><path
         id="path312"
         d="M 0,0 H 9980 V 3160 H 0 Z" /></clipPath><clipPath
       id="clipPath324"
       clipPathUnits="userSpaceOnUse"><path
         style="clip-rule:evenodd"
         id="path322"
         d="m 7629.63,2408.5 c 107.89,-207.2 -75.72,-770.85 -75.72,-984.99 0.02,-214.14 24.1,-289.62 80.76,-359.03 28.97,-35.56 67.01,-14.24 70.52,24.16 17.57,188.75 220.25,701.04 233.33,939.08 16.71,303.21 -132.96,420.69 -220.64,428.11 -48.58,4.1 -112.83,-4.69 -88.25,-47.33" /></clipPath><clipPath
       id="clipPath330"
       clipPathUnits="userSpaceOnUse"><path
         id="path328"
         d="M 0,0 H 9980 V 3160 H 0 Z" /></clipPath><clipPath
       id="clipPath340"
       clipPathUnits="userSpaceOnUse"><path
         style="clip-rule:evenodd"
         id="path338"
         d="m 7703.86,2700.87 c -5.51,-197.45 323.68,-229.32 323.68,12.08 0,210.36 -175.93,384.37 -211.26,413.33 -54.92,44.8 -132.59,36.71 -114.3,-35.7 42.12,-151.76 3.77,-320.73 1.88,-389.71" /></clipPath><clipPath
       id="clipPath346"
       clipPathUnits="userSpaceOnUse"><path
         id="path344"
         d="M 0,0 H 9980 V 3160 H 0 Z" /></clipPath><clipPath
       id="clipPath356"
       clipPathUnits="userSpaceOnUse"><path
         style="clip-rule:evenodd"
         id="path354"
         d="m 9962.07,1066.6 c -43.02,265.21 16.16,606.45 16.16,928.01 0,245.49 -203.93,371.69 -324.93,371.69 -157.21,0 -250.59,-70.91 -250.59,-70.91 1.76,46.72 9.83,118.6 8.35,141.27 -1.73,25.93 -32.8,25.96 -77.73,1.73 -247.16,-153.85 -282.85,-595.3 -282.85,-901.28 0.02,-306 48.7,-414.46 53.81,-455.92 4.95,-39.38 53.31,-45.27 72.33,-10.69 131.34,255.88 146.68,721.84 191.56,981.19 62.26,84.7 316.21,100.26 326.62,-102.02 10.56,-205.84 -9.28,-726.22 201.16,-907.9 28.39,-24.47 72.33,-13.27 66.11,24.83" /></clipPath><clipPath
       id="clipPath362"
       clipPathUnits="userSpaceOnUse"><path
         id="path360"
         d="M 0,0 H 9980 V 3160 H 0 Z" /></clipPath></defs><g
     inkscape:label="Layer 1"
     inkscape:groupmode="layer"
     id="layer1"><g
       id="g6673"
       transform="matrix(0.32189462,0,0,0.32046725,17.637452,46.518252)"><g
         id="g6658"><path
           id="path2772-5"
           d="m 501.02136,-92.855333 c -2.6,11.899998 -9.99289,14.762058 -11.49289,7.462058 -1.1,-5.5 -9.68198,-16.730325 -21.58198,-21.630325 V 64.33655 c 12.1,9.7 22.2,11.03604 25.6,17.83604 4.7,-13.9 22,-24.30571 41,-44.40571 V -125.8165 c -19.7,10.9 -31.52513,24.16117 -33.52513,32.961167 z"
           inkscape:connector-curvature="0"
           style="fill:#ffcc11;fill-opacity:1"
           sodipodi:nodetypes="cccccccc" /><path
           id="path2774-4"
           d="M 468.94649,63.92259 V -105.1652 c -4,-1.8 -8.03709,-3.38613 -13.63709,-3.38613 -15.4,0 -51.86431,19.386482 -52.46431,73.58648 -0.5,44.4 41.1014,78.98744 66.1014,98.88744 z"
           inkscape:connector-curvature="0"
           style="fill:#003388;fill-opacity:1"
           sodipodi:nodetypes="ccscc" /><path
           id="path2776-4"
           d="m 557.44649,-134.57741 c -8.2,0 -16,2.85 -23.1,6.75 v 169.15 c 27.7,-29.3 66.2,-75.05 67.5,-115.450001 0.9,-24.9 -15.9,-60.449999 -44.4,-60.449999 z"
           inkscape:connector-curvature="0"
           style="fill:#cc1122;fill-opacity:1"
           sodipodi:nodetypes="scccs" /><circle
           style="fill:#f5d402;stroke-width:0.134115"
           cx="483.92996"
           cy="-0.37113854"
           r="0.34946489"
           id="circle1165-0" /><circle
           id="circle5221"
           r="0.34946489"
           cy="-1.5820761"
           cx="486.46121"
           style="fill:#f5d402;stroke-width:0.134115" /><circle
           style="fill:#f5d402;stroke-width:0.134115"
           cx="483.57016"
           cy="-7.679534"
           r="0.34946489"
           id="circle5223" /><circle
           id="circle5225"
           r="0.34946489"
           cy="-6.0646353"
           cx="481.00699"
           style="fill:#f5d402;stroke-width:0.134115" /><circle
           style="fill:#f5d402;stroke-width:0.134115"
           cx="478.26871"
           cy="-12.037292"
           r="0.34946489"
           id="circle5227" /><circle
           id="circle5229"
           r="0.34946489"
           cy="-13.420104"
           cx="480.75699"
           style="fill:#f5d402;stroke-width:0.134115" /><circle
           style="fill:#f5d402;stroke-width:0.134115"
           cx="475.25092"
           cy="-18.054686"
           r="0.34946489"
           id="circle5231" /><circle
           id="circle5233"
           r="0.34946489"
           cy="-19.382795"
           cx="477.70178"
           style="fill:#f5d402;stroke-width:0.134115" /></g><path
         inkscape:connector-curvature="0"
         d="m 567.54649,-145.12741 c -25.5,0 -55.7,18.8 -74,50.199999 -4.9,-11.299999 -22.5,-23.699999 -43.4,-23.699999 -16.8,0 -64,20.999999 -64,88.9 0,87.6 88.6,105.6 106.5,132.8 1.2,1.9 5.2,3.3 6.7,-1.2 14.3,-42.2 125.1,-89.8 125.1,-175.700001 0.1,-48.099999 -31.4,-71.299999 -56.9,-71.299999 z m -157.2,111.4 c 0.6,-54.300001 28.8,-71.2 44.2,-71.2 21.5,0 30.3,16.399999 31.8,23.599999 1.4,7.2 9.6,13 12.2,1.2 2.6,-11.9 27.9,-48.099999 58.9,-48.099999 28.4,0 38.3,29.299999 37.4,54.199999 -2.3,67.900001 -89.7,122.000001 -101.3,156.200001 -10.3,-20.7 -83.9,-50.7 -83.2,-115.9 z"
         id="path2778-8" /></g><g
       transform="matrix(0.03527778,0,0,-0.03527778,-0.14951711,111.27882)"
       id="g12"
       style="fill:#ffffff;fill-opacity:1"
       inkscape:export-filename="www\img\contest03\03-logo.png"
       inkscape:export-xdpi="96"
       inkscape:export-ydpi="96"><g
         id="g14"
         style="fill:#ffffff;fill-opacity:1"><g
           clip-path="url(#clipPath20)"
           id="g16"
           style="fill:#ffffff;fill-opacity:1"><g
             clip-path="url(#clipPath26)"
             id="g22"
             style="fill:#ffffff;fill-opacity:1"><path
               id="path28"
               style="fill:#ffffff;fill-opacity:1;fill-rule:nonzero;stroke:none"
               d="m 1673.66,0 h 509.641 V 586.305 H 1673.66 Z" /></g></g></g><g
         id="g30"
         style="fill:#ffffff;fill-opacity:1"><g
           clip-path="url(#clipPath36)"
           id="g32"
           style="fill:#ffffff;fill-opacity:1"><g
             clip-path="url(#clipPath42)"
             id="g38"
             style="fill:#ffffff;fill-opacity:1"><path
               id="path44"
               style="fill:#ffffff;fill-opacity:1;fill-rule:nonzero;stroke:none"
               d="m 2195.03,0 h 650.125 V 587.801 H 2195.03 Z" /></g></g></g><g
         id="g46"
         style="fill:#ffffff;fill-opacity:1"><g
           clip-path="url(#clipPath52)"
           id="g48"
           style="fill:#ffffff;fill-opacity:1"><g
             clip-path="url(#clipPath58)"
             id="g54"
             style="fill:#ffffff;fill-opacity:1"><path
               id="path60"
               style="fill:#ffffff;fill-opacity:1;fill-rule:nonzero;stroke:none"
               d="m 2876.12,0 h 559.906 V 578.918 H 2876.12 Z" /></g></g></g><g
         id="g62"
         style="fill:#ffffff;fill-opacity:1"><g
           clip-path="url(#clipPath68)"
           id="g64"
           style="fill:#ffffff;fill-opacity:1"><g
             clip-path="url(#clipPath74)"
             id="g70"
             style="fill:#ffffff;fill-opacity:1"><path
               id="path76"
               style="fill:#ffffff;fill-opacity:1;fill-rule:nonzero;stroke:none"
               d="m 3481.06,0 h 593.195 V 587.801 H 3481.06 Z" /></g></g></g><g
         id="g78"
         style="fill:#ffffff;fill-opacity:1"><g
           clip-path="url(#clipPath84)"
           id="g80"
           style="fill:#ffffff;fill-opacity:1"><g
             clip-path="url(#clipPath90)"
             id="g86"
             style="fill:#ffffff;fill-opacity:1"><path
               id="path92"
               style="fill:#ffffff;fill-opacity:1;fill-rule:nonzero;stroke:none"
               d="m 4371.45,0 h 577.648 V 587.801 H 4371.45 Z" /></g></g></g><g
         id="g94"
         style="fill:#ffffff;fill-opacity:1"><g
           clip-path="url(#clipPath100)"
           id="g96"
           style="fill:#ffffff;fill-opacity:1"><g
             clip-path="url(#clipPath106)"
             id="g102"
             style="fill:#ffffff;fill-opacity:1"><path
               id="path108"
               style="fill:#ffffff;fill-opacity:1;fill-rule:nonzero;stroke:none"
               d="m 4946.81,0 h 650.125 V 587.801 H 4946.81 Z" /></g></g></g><g
         id="g110"
         style="fill:#ffffff;fill-opacity:1"><g
           clip-path="url(#clipPath116)"
           id="g112"
           style="fill:#ffffff;fill-opacity:1"><g
             clip-path="url(#clipPath122)"
             id="g118"
             style="fill:#ffffff;fill-opacity:1"><path
               id="path124"
               style="fill:#ffffff;fill-opacity:1;fill-rule:nonzero;stroke:none"
               d="m 5627.91,0 h 559.938 V 578.918 H 5627.91 Z" /></g></g></g><g
         id="g126"
         style="fill:#ffffff;fill-opacity:1"><g
           clip-path="url(#clipPath132)"
           id="g128"
           style="fill:#ffffff;fill-opacity:1"><g
             clip-path="url(#clipPath138)"
             id="g134"
             style="fill:#ffffff;fill-opacity:1"><path
               id="path140"
               style="fill:#ffffff;fill-opacity:1;fill-rule:nonzero;stroke:none"
               d="m 6208.43,0 h 528.863 V 578.918 H 6208.43 Z" /></g></g></g><g
         id="g142"
         style="fill:#ffffff;fill-opacity:1"><g
           clip-path="url(#clipPath148)"
           id="g144"
           style="fill:#ffffff;fill-opacity:1"><g
             clip-path="url(#clipPath154)"
             id="g150"
             style="fill:#ffffff;fill-opacity:1"><path
               id="path156"
               style="fill:#ffffff;fill-opacity:1;fill-rule:nonzero;stroke:none"
               d="m 6768.99,0 h 494.129 V 578.918 H 6768.99 Z" /></g></g></g><g
         id="g158"
         style="fill:#ffffff;fill-opacity:1"><g
           clip-path="url(#clipPath164)"
           id="g160"
           style="fill:#ffffff;fill-opacity:1"><g
             clip-path="url(#clipPath170)"
             id="g166"
             style="fill:#ffffff;fill-opacity:1"><path
               id="path172"
               style="fill:#ffffff;fill-opacity:1;fill-rule:nonzero;stroke:none"
               d="m 7272.63,0 h 509.641 V 586.305 H 7272.63 Z" /></g></g></g><g
         id="g174"
         style="fill:#ffffff;fill-opacity:1"><g
           clip-path="url(#clipPath180)"
           id="g176"
           style="fill:#ffffff;fill-opacity:1"><g
             clip-path="url(#clipPath186)"
             id="g182"
             style="fill:#ffffff;fill-opacity:1"><path
               id="path188"
               style="fill:#ffffff;fill-opacity:1;fill-rule:nonzero;stroke:none"
               d="m 7777.01,0 h 528.852 V 578.918 H 7777.01 Z" /></g></g></g><g
         id="g190"
         style="fill:#ffffff;fill-opacity:1"><g
           clip-path="url(#clipPath196)"
           id="g192"
           style="fill:#ffffff;fill-opacity:1"><g
             clip-path="url(#clipPath202)"
             id="g198"
             style="fill:#ffffff;fill-opacity:1"><path
               id="path204"
               style="fill:#ffffff;fill-opacity:1;fill-rule:nonzero;stroke:none"
               d="m 7978.99,996.184 h 984.855 v 1510.44 H 7978.99 Z" /></g></g></g><g
         id="g206"
         style="fill:#ffffff;fill-opacity:1"><g
           clip-path="url(#clipPath212)"
           id="g208"
           style="fill:#ffffff;fill-opacity:1"><g
             clip-path="url(#clipPath218)"
             id="g214"
             style="fill:#ffffff;fill-opacity:1"><path
               id="path220"
               style="fill:#ffffff;fill-opacity:1;fill-rule:nonzero;stroke:none"
               d="m 0,790.402 h 1285.53 v 2172.15 H 0 Z" /></g></g></g><g
         id="g222"
         style="fill:#ffffff;fill-opacity:1"><g
           clip-path="url(#clipPath228)"
           id="g224"
           style="fill:#ffffff;fill-opacity:1"><g
             clip-path="url(#clipPath234)"
             id="g230"
             style="fill:#ffffff;fill-opacity:1"><path
               id="path236"
               style="fill:#ffffff;fill-opacity:1;fill-rule:nonzero;stroke:none"
               d="m 1256.04,996.078 h 879.301 v 1527.68 H 1256.04 Z" /></g></g></g><g
         id="g238"
         style="fill:#ffffff;fill-opacity:1"><g
           clip-path="url(#clipPath244)"
           id="g240"
           style="fill:#ffffff;fill-opacity:1"><g
             clip-path="url(#clipPath250)"
             id="g246"
             style="fill:#ffffff;fill-opacity:1"><path
               id="path252"
               style="fill:#ffffff;fill-opacity:1;fill-rule:nonzero;stroke:none"
               d="m 3113.01,996.086 h 918.41 v 1506.7 h -918.41 z" /></g></g></g><g
         id="g254"
         style="fill:#ffffff;fill-opacity:1"><g
           clip-path="url(#clipPath260)"
           id="g256"
           style="fill:#ffffff;fill-opacity:1"><g
             clip-path="url(#clipPath266)"
             id="g262"
             style="fill:#ffffff;fill-opacity:1"><path
               id="path268"
               style="fill:#ffffff;fill-opacity:1;fill-rule:nonzero;stroke:none"
               d="m 2141.8,911.598 h 1066.13 v 1595.32 H 2141.8 Z" /></g></g></g><g
         id="g270"
         style="fill:#ffffff;fill-opacity:1"><g
           clip-path="url(#clipPath276)"
           id="g272"
           style="fill:#ffffff;fill-opacity:1"><g
             clip-path="url(#clipPath282)"
             id="g278"
             style="fill:#ffffff;fill-opacity:1"><path
               id="path284"
               style="fill:#ffffff;fill-opacity:1;fill-rule:nonzero;stroke:none"
               d="m 3980.22,829.875 h 2267.65 v 2374.48 H 3980.22 Z" /></g></g></g><g
         id="g286"
         style="fill:#ffffff;fill-opacity:1"><g
           clip-path="url(#clipPath292)"
           id="g288"
           style="fill:#ffffff;fill-opacity:1"><g
             clip-path="url(#clipPath298)"
             id="g294"
             style="fill:#ffffff;fill-opacity:1"><path
               id="path300"
               style="fill:#ffffff;fill-opacity:1;fill-rule:nonzero;stroke:none"
               d="m 6039.76,996.34 h 539.332 V 2507 H 6039.76 Z" /></g></g></g><g
         id="g302"
         style="fill:#ffffff;fill-opacity:1"><g
           clip-path="url(#clipPath308)"
           id="g304"
           style="fill:#ffffff;fill-opacity:1"><g
             clip-path="url(#clipPath314)"
             id="g310"
             style="fill:#ffffff;fill-opacity:1"><path
               id="path316"
               style="fill:#ffffff;fill-opacity:1;fill-rule:nonzero;stroke:none"
               d="m 6406.39,913.125 h 1101.03 v 1593.79 H 6406.39 Z" /></g></g></g><g
         id="g318"
         style="fill:#ffffff;fill-opacity:1"><g
           clip-path="url(#clipPath324)"
           id="g320"
           style="fill:#ffffff;fill-opacity:1"><g
             clip-path="url(#clipPath330)"
             id="g326"
             style="fill:#ffffff;fill-opacity:1"><path
               id="path332"
               style="fill:#ffffff;fill-opacity:1;fill-rule:nonzero;stroke:none"
               d="m 7503.91,996.336 h 485.898 v 1510.4 H 7503.91 Z" /></g></g></g><g
         id="g334"
         style="fill:#ffffff;fill-opacity:1"><g
           clip-path="url(#clipPath340)"
           id="g336"
           style="fill:#ffffff;fill-opacity:1"><g
             clip-path="url(#clipPath346)"
             id="g342"
             style="fill:#ffffff;fill-opacity:1"><path
               id="path348"
               style="fill:#ffffff;fill-opacity:1;fill-rule:nonzero;stroke:none"
               d="m 7649.25,2492.26 h 428.289 v 711.668 H 7649.25 Z" /></g></g></g><g
         id="g350"
         style="fill:#ffffff;fill-opacity:1"><g
           clip-path="url(#clipPath356)"
           id="g352"
           style="fill:#ffffff;fill-opacity:1"><g
             clip-path="url(#clipPath362)"
             id="g358"
             style="fill:#ffffff;fill-opacity:1"><path
               id="path364"
               style="fill:#ffffff;fill-opacity:1;fill-rule:nonzero;stroke:none"
               d="m 9000.48,978.801 h 1027.74 v 1527.54 H 9000.48 Z" /></g></g></g></g><text
       xml:space="preserve"
       style="font-style:normal;font-variant:normal;font-weight:normal;font-stretch:normal;font-size:46.4699px;font-family:Chiller;-inkscape-font-specification:'Chiller, Normal';font-variant-ligatures:normal;font-variant-caps:normal;font-variant-numeric:normal;font-variant-east-asian:normal;fill:#d40000;fill-opacity:1;stroke:#d40000;stroke-width:1.82952;stroke-linecap:square;stroke-dasharray:none"
       x="33.173084"
       y="145.17348"
       id="text2798"
       transform="matrix(1.1170548,-0.14379129,0.18430897,0.87148631,0,0)"
       inkscape:export-filename="www\img\contest03\03-logo.png"
       inkscape:export-xdpi="96"
       inkscape:export-ydpi="96"><tspan
         sodipodi:role="line"
         id="tspan2796"
         style="font-style:normal;font-variant:normal;font-weight:normal;font-stretch:normal;font-size:46.4699px;font-family:Chiller;-inkscape-font-specification:'Chiller, Normal';font-variant-ligatures:normal;font-variant-caps:normal;font-variant-numeric:normal;font-variant-east-asian:normal;fill:#d40000;fill-opacity:1;stroke:#d40000;stroke-width:1.82952;stroke-dasharray:none"
         x="33.173084"
         y="145.17348">SLUT</tspan></text></g></svg>
