<?xml version="1.0" encoding="UTF-8" standalone="no"?>
<svg
   width="131"
   height="131"
   version="1.1"
   id="svg11438"
   sodipodi:docname="mask-favicon.svg"
   inkscape:version="1.2.1 (9c6d41e410, 2022-07-14)"
   xmlns:inkscape="http://www.inkscape.org/namespaces/inkscape"
   xmlns:sodipodi="http://sodipodi.sourceforge.net/DTD/sodipodi-0.dtd"
   xmlns="http://www.w3.org/2000/svg"
   xmlns:svg="http://www.w3.org/2000/svg">
  <defs
     id="defs11442" />
  <sodipodi:namedview
     id="namedview11440"
     pagecolor="#505050"
     bordercolor="#ffffff"
     borderopacity="1"
     inkscape:showpageshadow="0"
     inkscape:pageopacity="0"
     inkscape:pagecheckerboard="1"
     inkscape:deskcolor="#505050"
     showgrid="false"
     inkscape:zoom="1.8015267"
     inkscape:cx="65.777542"
     inkscape:cy="65.5"
     inkscape:window-width="1920"
     inkscape:window-height="1137"
     inkscape:window-x="-8"
     inkscape:window-y="711"
     inkscape:window-maximized="1"
     inkscape:current-layer="svg11438" />
  <path
     d="M98.4 0h.1-.1zm0 0C85 0 69.1 10 59.5 26.4 56.9 20.4 47.7 14 36.7 14 27.9 14 3.1 25.1 3.1 60.7c0 46 46.5 55.5 56 69.9a2 2 0 003.5-.7c7.5-22.1 65.8-47.3 65.8-92.3 0-25.4-16.6-37.6-30-37.6zm-5.3 8.8c14.9 0 20.1 15.5 19.7 28.6-.8 21.1-17.1 39.6-31.7 55v.1c-10 10.6-19.1 19.7-21.6 27-1.7-3.5-6.9-7.5-13-12.4v.1c-13.1-10.6-31-25.3-30.7-48.6C16.1 30.1 31 21.1 39 21.1a18.2 18.2 0 017.1 1.5v-.1a16.4 16.4 0 01.3.2 18.2 18.2 0 01.1 0 16.4 16.4 0 019.2 10.9c.8 3.8 5.1 6.8 6.4.6a44 44 0 0118.8-21.9 25 25 0 01.2-.1 25 25 0 0112-3.4z"
     id="path11436" />
  <text
     xml:space="preserve"
     style="font-style:normal;font-variant:normal;font-weight:normal;font-stretch:normal;font-size:66.5781px;font-family:Chiller;-inkscape-font-specification:'Chiller, Normal';font-variant-ligatures:normal;font-variant-caps:normal;font-variant-numeric:normal;font-variant-east-asian:normal;fill:#d40000;fill-opacity:1;stroke:#d40000;stroke-width:2.62118;stroke-linecap:square;stroke-dasharray:none"
     x="-5.9037485"
     y="94.419594"
     id="text2798"
     transform="matrix(1.1170548,-0.14379129,0.18430897,0.87148632,0,0)"
     inkscape:export-filename="www\img\contest03\03-logo.png"
     inkscape:export-xdpi="96"
     inkscape:export-ydpi="96"><tspan
       sodipodi:role="line"
       id="tspan2796"
       style="font-style:normal;font-variant:normal;font-weight:normal;font-stretch:normal;font-size:66.5781px;font-family:Chiller;-inkscape-font-specification:'Chiller, Normal';font-variant-ligatures:normal;font-variant-caps:normal;font-variant-numeric:normal;font-variant-east-asian:normal;fill:#d40000;fill-opacity:1;stroke:#d40000;stroke-width:2.62118;stroke-dasharray:none"
       x="-5.9037485"
       y="94.419594">SLUT</tspan></text>
</svg>
